# xmcd
#
# Track frame offsets: 
#        150
#        15940
#        32149
#        50761
#        72944
#        90289
#        110496
#        126007
#        141852
#        164064
#        184675
#        207965
#        233532
#        250885
#        270501
#        291253
#
# Disc length: 4068 seconds
#
# Revision: 0
# Processed by: cddbd v1.5.2PL0 Copyright (c) Steve Scherf et al.
# Submitted via: ExactAudioCopy v1.0b4
#
DISCID=df0fe210
DTITLE=Mississippi Heat - Cab Driving Man
DYEAR=2016
DGENRE=Blues
TTITLE0=Cupid Bound
TTITLE1=Cab Driving Man
TTITLE2=That Late Night Stuff
TTITLE3=Flowers On My Tombstone
TTITLE4=Icy Blue
TTITLE5=The Last Go Round
TTITLE6=Life Is Too Short
TTITLE7=Don't Mess With A Good Thing
TTITLE8=Rosalie
TTITLE9=Luck Of The Draw
TTITLE10=Mama Kaila
TTITLE11=Music Is My Life
TTITLE12=Lonely Eyes
TTITLE13=Smooth Operator
TTITLE14=Can't Get Me No Traction
TTITLE15=Hey Pipo
EXTD=
EXTT0=
EXTT1=
EXTT2=
EXTT3=
EXTT4=
EXTT5=
EXTT6=
EXTT7=
EXTT8=
EXTT9=
EXTT10=
EXTT11=
EXTT12=
EXTT13=
EXTT14=
EXTT15=
PLAYORDER=
